<mxfile host="Electron" agent="Mozilla/5.0 (Macintosh; Intel Mac OS X 10_15_7) AppleWebKit/537.36 (KHTML, like Gecko) draw.io/28.1.2 Chrome/138.0.7204.243 Electron/37.4.0 Safari/537.36" version="28.1.2">
  <diagram name="Page-1" id="-H_mtQnk-PTXWXPvYvuk">
    <mxGraphModel dx="1002" dy="604" grid="1" gridSize="10" guides="1" tooltips="1" connect="1" arrows="1" fold="1" page="1" pageScale="1" pageWidth="1169" pageHeight="827" math="0" shadow="0">
      <root>
        <mxCell id="0" />
        <mxCell id="1" parent="0" />
        <mxCell id="nsNdBh9nTtbOIfjtGuWc-2" value="" style="edgeStyle=orthogonalEdgeStyle;rounded=0;orthogonalLoop=1;jettySize=auto;html=1;" edge="1" parent="1" source="zA23MoTUsTF4_91t8viU-3" target="LNXrDc--VcKm4lfCie8n-2">
          <mxGeometry relative="1" as="geometry" />
        </mxCell>
        <mxCell id="nsNdBh9nTtbOIfjtGuWc-3" style="edgeStyle=orthogonalEdgeStyle;rounded=0;orthogonalLoop=1;jettySize=auto;html=1;exitX=1;exitY=0.75;exitDx=0;exitDy=0;entryX=0;entryY=0.25;entryDx=0;entryDy=0;" edge="1" parent="1" source="zA23MoTUsTF4_91t8viU-3" target="mH4QpIbcnktGe6me8MCe-2">
          <mxGeometry relative="1" as="geometry">
            <Array as="points">
              <mxPoint x="420" y="298" />
              <mxPoint x="420" y="328" />
            </Array>
          </mxGeometry>
        </mxCell>
        <mxCell id="nsNdBh9nTtbOIfjtGuWc-12" style="edgeStyle=orthogonalEdgeStyle;rounded=0;orthogonalLoop=1;jettySize=auto;html=1;exitX=0;exitY=0.75;exitDx=0;exitDy=0;entryX=0;entryY=0.5;entryDx=0;entryDy=0;" edge="1" parent="1" source="zA23MoTUsTF4_91t8viU-3" target="nsNdBh9nTtbOIfjtGuWc-7">
          <mxGeometry relative="1" as="geometry" />
        </mxCell>
        <mxCell id="zA23MoTUsTF4_91t8viU-3" value="pymongo-api" style="rounded=1;whiteSpace=wrap;html=1;" parent="1" vertex="1">
          <mxGeometry x="240" y="260" width="110" height="50" as="geometry" />
        </mxCell>
        <mxCell id="mH4QpIbcnktGe6me8MCe-6" value="" style="edgeStyle=orthogonalEdgeStyle;rounded=0;orthogonalLoop=1;jettySize=auto;html=1;entryX=0;entryY=0.5;entryDx=0;entryDy=0;" parent="1" source="mH4QpIbcnktGe6me8MCe-2" target="dam4xSPULZm0RHD_1hVT-4" edge="1">
          <mxGeometry relative="1" as="geometry">
            <mxPoint x="570" y="280" as="targetPoint" />
          </mxGeometry>
        </mxCell>
        <mxCell id="LNXrDc--VcKm4lfCie8n-3" style="edgeStyle=orthogonalEdgeStyle;rounded=0;orthogonalLoop=1;jettySize=auto;html=1;exitX=1;exitY=0.5;exitDx=0;exitDy=0;entryX=0;entryY=0.5;entryDx=0;entryDy=0;" parent="1" source="mH4QpIbcnktGe6me8MCe-2" target="dam4xSPULZm0RHD_1hVT-7" edge="1">
          <mxGeometry relative="1" as="geometry" />
        </mxCell>
        <mxCell id="mH4QpIbcnktGe6me8MCe-2" value="mongos&lt;br&gt;(роутер)" style="rounded=0;whiteSpace=wrap;html=1;" parent="1" vertex="1">
          <mxGeometry x="435" y="315" width="110" height="50" as="geometry" />
        </mxCell>
        <mxCell id="mH4QpIbcnktGe6me8MCe-5" value="" style="edgeStyle=orthogonalEdgeStyle;rounded=0;orthogonalLoop=1;jettySize=auto;html=1;" parent="1" source="mH4QpIbcnktGe6me8MCe-4" target="mH4QpIbcnktGe6me8MCe-2" edge="1">
          <mxGeometry relative="1" as="geometry" />
        </mxCell>
        <mxCell id="mH4QpIbcnktGe6me8MCe-4" value="config&lt;br&gt;server" style="shape=cylinder3;whiteSpace=wrap;html=1;boundedLbl=1;backgroundOutline=1;size=15;" parent="1" vertex="1">
          <mxGeometry x="460" y="400" width="60" height="80" as="geometry" />
        </mxCell>
        <mxCell id="mH4QpIbcnktGe6me8MCe-8" value="" style="rounded=0;whiteSpace=wrap;html=1;fillColor=none;" parent="1" vertex="1">
          <mxGeometry x="20" y="130" width="860" height="440" as="geometry" />
        </mxCell>
        <mxCell id="dam4xSPULZm0RHD_1hVT-4" value="&lt;div&gt;&lt;br&gt;&lt;/div&gt;&lt;div&gt;&lt;br&gt;&lt;/div&gt;&lt;div&gt;&lt;br&gt;&lt;/div&gt;&lt;div&gt;&lt;br&gt;&lt;/div&gt;&lt;div style=&quot;text-align: left;&quot;&gt;&lt;span style=&quot;background-color: transparent; color: light-dark(rgb(0, 0, 0), rgb(255, 255, 255));&quot;&gt;&lt;br&gt;&lt;/span&gt;&lt;/div&gt;&lt;div style=&quot;text-align: left;&quot;&gt;&lt;span style=&quot;background-color: transparent; color: light-dark(rgb(0, 0, 0), rgb(255, 255, 255));&quot;&gt;&lt;br&gt;&lt;/span&gt;&lt;/div&gt;&lt;div style=&quot;text-align: left;&quot;&gt;&lt;span style=&quot;background-color: transparent; color: light-dark(rgb(0, 0, 0), rgb(255, 255, 255));&quot;&gt;MongoDb Replica Set: shard1&lt;/span&gt;&lt;/div&gt;" style="rounded=0;whiteSpace=wrap;html=1;fillColor=none;" parent="1" vertex="1">
          <mxGeometry x="630" y="208" width="220" height="120" as="geometry" />
        </mxCell>
        <mxCell id="dam4xSPULZm0RHD_1hVT-5" value="shard-1-1&lt;br&gt;(primary)" style="shape=cylinder3;whiteSpace=wrap;html=1;boundedLbl=1;backgroundOutline=1;size=15;" parent="1" vertex="1">
          <mxGeometry x="660" y="218" width="70" height="80" as="geometry" />
        </mxCell>
        <mxCell id="dam4xSPULZm0RHD_1hVT-6" value="shard-1-2&lt;br&gt;(secondary)" style="shape=cylinder3;whiteSpace=wrap;html=1;boundedLbl=1;backgroundOutline=1;size=15;" parent="1" vertex="1">
          <mxGeometry x="750" y="218" width="70" height="80" as="geometry" />
        </mxCell>
        <mxCell id="dam4xSPULZm0RHD_1hVT-7" value="&lt;div&gt;&lt;br&gt;&lt;/div&gt;&lt;div&gt;&lt;br&gt;&lt;/div&gt;&lt;div&gt;&lt;br&gt;&lt;/div&gt;&lt;div&gt;&lt;br&gt;&lt;/div&gt;&lt;div style=&quot;text-align: left;&quot;&gt;&lt;span style=&quot;background-color: transparent; color: light-dark(rgb(0, 0, 0), rgb(255, 255, 255));&quot;&gt;&lt;br&gt;&lt;/span&gt;&lt;/div&gt;&lt;div style=&quot;text-align: left;&quot;&gt;&lt;span style=&quot;background-color: transparent; color: light-dark(rgb(0, 0, 0), rgb(255, 255, 255));&quot;&gt;&lt;br&gt;&lt;/span&gt;&lt;/div&gt;&lt;div style=&quot;text-align: left;&quot;&gt;&lt;span style=&quot;background-color: transparent; color: light-dark(rgb(0, 0, 0), rgb(255, 255, 255));&quot;&gt;MongoDb Replica Set: shard2&lt;/span&gt;&lt;/div&gt;" style="rounded=0;whiteSpace=wrap;html=1;fillColor=none;" parent="1" vertex="1">
          <mxGeometry x="630" y="352" width="220" height="120" as="geometry" />
        </mxCell>
        <mxCell id="dam4xSPULZm0RHD_1hVT-8" value="shard-2-1&lt;br&gt;(primary)" style="shape=cylinder3;whiteSpace=wrap;html=1;boundedLbl=1;backgroundOutline=1;size=15;" parent="1" vertex="1">
          <mxGeometry x="660" y="362" width="70" height="80" as="geometry" />
        </mxCell>
        <mxCell id="dam4xSPULZm0RHD_1hVT-9" value="shard-2-2&lt;br&gt;(secondary)" style="shape=cylinder3;whiteSpace=wrap;html=1;boundedLbl=1;backgroundOutline=1;size=15;" parent="1" vertex="1">
          <mxGeometry x="750" y="362" width="70" height="80" as="geometry" />
        </mxCell>
        <mxCell id="LNXrDc--VcKm4lfCie8n-2" value="redis&lt;div&gt;cluster&lt;/div&gt;" style="shape=cylinder3;whiteSpace=wrap;html=1;boundedLbl=1;backgroundOutline=1;size=15;" parent="1" vertex="1">
          <mxGeometry x="370" y="150" width="60" height="80" as="geometry" />
        </mxCell>
        <mxCell id="nsNdBh9nTtbOIfjtGuWc-6" value="" style="edgeStyle=orthogonalEdgeStyle;rounded=0;orthogonalLoop=1;jettySize=auto;html=1;entryX=0;entryY=0.75;entryDx=0;entryDy=0;" edge="1" parent="1" source="nsNdBh9nTtbOIfjtGuWc-1" target="mH4QpIbcnktGe6me8MCe-2">
          <mxGeometry relative="1" as="geometry">
            <Array as="points">
              <mxPoint x="420" y="375" />
              <mxPoint x="420" y="353" />
            </Array>
          </mxGeometry>
        </mxCell>
        <mxCell id="nsNdBh9nTtbOIfjtGuWc-11" style="edgeStyle=orthogonalEdgeStyle;rounded=0;orthogonalLoop=1;jettySize=auto;html=1;exitX=0;exitY=0.75;exitDx=0;exitDy=0;entryX=0;entryY=0.5;entryDx=0;entryDy=0;" edge="1" parent="1" source="nsNdBh9nTtbOIfjtGuWc-1" target="nsNdBh9nTtbOIfjtGuWc-7">
          <mxGeometry relative="1" as="geometry" />
        </mxCell>
        <mxCell id="nsNdBh9nTtbOIfjtGuWc-13" style="edgeStyle=orthogonalEdgeStyle;rounded=0;orthogonalLoop=1;jettySize=auto;html=1;exitX=1;exitY=0.25;exitDx=0;exitDy=0;entryX=0.5;entryY=1;entryDx=0;entryDy=0;entryPerimeter=0;" edge="1" parent="1" source="nsNdBh9nTtbOIfjtGuWc-1" target="LNXrDc--VcKm4lfCie8n-2">
          <mxGeometry relative="1" as="geometry">
            <mxPoint x="380" y="330" as="targetPoint" />
          </mxGeometry>
        </mxCell>
        <mxCell id="nsNdBh9nTtbOIfjtGuWc-1" value="pymongo-api" style="rounded=1;whiteSpace=wrap;html=1;" vertex="1" parent="1">
          <mxGeometry x="240" y="350" width="110" height="50" as="geometry" />
        </mxCell>
        <mxCell id="nsNdBh9nTtbOIfjtGuWc-7" value="consul" style="rounded=1;whiteSpace=wrap;html=1;" vertex="1" parent="1">
          <mxGeometry x="245" y="432" width="100" height="40" as="geometry" />
        </mxCell>
        <mxCell id="nsNdBh9nTtbOIfjtGuWc-9" value="" style="edgeStyle=orthogonalEdgeStyle;rounded=0;orthogonalLoop=1;jettySize=auto;html=1;" edge="1" parent="1" source="nsNdBh9nTtbOIfjtGuWc-8" target="nsNdBh9nTtbOIfjtGuWc-7">
          <mxGeometry relative="1" as="geometry" />
        </mxCell>
        <mxCell id="nsNdBh9nTtbOIfjtGuWc-8" value="consul_kv" style="rounded=1;whiteSpace=wrap;html=1;" vertex="1" parent="1">
          <mxGeometry x="235" y="500" width="120" height="40" as="geometry" />
        </mxCell>
        <mxCell id="nsNdBh9nTtbOIfjtGuWc-15" style="edgeStyle=orthogonalEdgeStyle;rounded=0;orthogonalLoop=1;jettySize=auto;html=1;exitX=1;exitY=0.25;exitDx=0;exitDy=0;entryX=0;entryY=0.25;entryDx=0;entryDy=0;" edge="1" parent="1" source="nsNdBh9nTtbOIfjtGuWc-14" target="zA23MoTUsTF4_91t8viU-3">
          <mxGeometry relative="1" as="geometry" />
        </mxCell>
        <mxCell id="nsNdBh9nTtbOIfjtGuWc-16" style="edgeStyle=orthogonalEdgeStyle;rounded=0;orthogonalLoop=1;jettySize=auto;html=1;exitX=1;exitY=0.75;exitDx=0;exitDy=0;entryX=0;entryY=0.25;entryDx=0;entryDy=0;" edge="1" parent="1" source="nsNdBh9nTtbOIfjtGuWc-14" target="nsNdBh9nTtbOIfjtGuWc-1">
          <mxGeometry relative="1" as="geometry" />
        </mxCell>
        <mxCell id="nsNdBh9nTtbOIfjtGuWc-19" style="edgeStyle=orthogonalEdgeStyle;rounded=0;orthogonalLoop=1;jettySize=auto;html=1;exitX=0.5;exitY=1;exitDx=0;exitDy=0;entryX=0;entryY=0.75;entryDx=0;entryDy=0;" edge="1" parent="1" source="nsNdBh9nTtbOIfjtGuWc-14" target="nsNdBh9nTtbOIfjtGuWc-7">
          <mxGeometry relative="1" as="geometry" />
        </mxCell>
        <mxCell id="nsNdBh9nTtbOIfjtGuWc-14" value="API Gateway" style="rounded=1;whiteSpace=wrap;html=1;" vertex="1" parent="1">
          <mxGeometry x="50" y="290" width="120" height="60" as="geometry" />
        </mxCell>
      </root>
    </mxGraphModel>
  </diagram>
</mxfile>
